<svg xmlns="http://www.w3.org/2000/svg" viewBox="0 0 120 120">
  <defs>
    <linearGradient id="lanthirGradFav" x1="0" y1="1" x2="1" y2="0">
      <stop offset="0" stop-color="#5B5BE8"></stop>
      <stop offset="0.5" stop-color="#1BBBD4"></stop>
      <stop offset="1" stop-color="#3EDC97"></stop>
    </linearGradient>
  </defs>
  <rect x="0" y="0" width="120" height="120" rx="26" fill="#141C26"></rect>
  <path d="M 60.00 38.00 L 60.00 13.35 M 64.90 38.55 L 68.70 21.89 M 69.55 40.18 L 77.28 24.12 M 73.72 42.80 L 90.87 21.29 M 77.20 46.28 L 94.40 32.57 M 79.82 50.45 L 98.92 41.26 M 81.45 55.10 L 97.99 51.33 M 82.00 60.00 L 104.62 60.00 M 81.45 64.90 L 111.66 71.79 M 79.82 69.55 L 99.68 79.11 M 77.20 73.72 L 93.02 86.33 M 73.72 77.20 L 86.33 93.01 M 69.55 79.82 L 81.07 103.76 M 64.90 81.45 L 69.80 102.92 M 60.00 82.00 L 60.00 104.41 M 55.10 81.45 L 52.35 93.51 M 50.45 79.82 L 39.79 101.97 M 46.28 77.20 L 31.22 96.09 M 42.80 73.72 L 20.36 91.61 M 40.18 69.55 L 19.90 79.31 M 38.55 64.90 L 26.55 67.63 M 38.00 60.00 L 19.77 60.00 M 38.55 55.10 L 9.43 48.46 M 40.18 50.45 L 20.51 40.98 M 42.80 46.28 L 30.95 36.83 M 46.28 42.80 L 37.52 31.82 M 50.45 40.18 L 39.75 17.96 M 55.10 38.55 L 48.03 7.54 " fill="none" stroke="url(#lanthirGradFav)" stroke-width="7" stroke-linecap="round"></path>
</svg>