<svg xmlns="http://www.w3.org/2000/svg" viewBox="0 0 200 200" width="200" height="200">
  <defs>
    <linearGradient id="g-alm" x1="0" y1="1" x2="1" y2="0">
      <stop offset="0%" stop-color="#3A2EE0"/>
      <stop offset="28%" stop-color="#1E7BE5"/>
      <stop offset="62%" stop-color="#1FCDED"/>
      <stop offset="100%" stop-color="#36F0D6"/>
    </linearGradient>
    <radialGradient id="g-bg" cx="50%" cy="50%" r="50%">
      <stop offset="0%" stop-color="#000000"/>
      <stop offset="80%" stop-color="#0A0F18"/>
      <stop offset="100%" stop-color="#0F1722"/>
    </radialGradient>
  </defs>
  <circle cx="100" cy="100" r="100" fill="url(#g-bg)"/>  <polyline points="129.99997099991026,100.0417133616915 136.7744239911874,100.12013810590855 143.54874467875905,100.2078016296397 150.32306970775457,100.28215223411925 157.09758345527501,100.32013569180646 163.87237399378668,100.30477993115011 170.64734438492584,100.23079731021505 177.422266766971,100.10765153795106" fill="none" stroke="url(#g-alm)" stroke-width="2.03" stroke-linecap="round" stroke-linejoin="round"/>
  <polyline points="129.87743226172375,102.7090665267041 136.63479663450534,103.05272905312249 143.3935936929975,103.36064846867201 150.14750415605877,103.72010547120246 156.89074160760038,104.22034082606741 163.61833160687277,104.92696802681742 170.3268584408928,105.86024391289064 177.01641733930808,106.98328411869205" fill="none" stroke="url(#g-alm)" stroke-width="1.94" stroke-linecap="round" stroke-linejoin="round"/>
  <polyline points="129.82002158584388,103.28120597034169 135.9253365964832,103.94040246238815 142.0307957498265,104.59825331447806 148.1359729650657,105.25866314010162 154.2404418630085,105.92555203017984 160.34389382508414,106.60174295631438 166.4462380386219,107.28802969683089 172.5476577174245,107.98268394781184" fill="none" stroke="url(#g-alm)" stroke-width="2.38" stroke-linecap="round" stroke-linejoin="round"/>
  <polyline points="129.72544809099855,104.04941178312986 137.2048830610187,105.18775414510537 144.68133421395046,106.34537442464165 152.16057148709186,107.48215499441766 159.64874953161674,108.55629408372567 167.15036441877737,109.53629099229632 174.666583611154,110.41131826686126 182.19460805877503,111.19713362651494" fill="none" stroke="url(#g-alm)" stroke-width="1.43" stroke-linecap="round" stroke-linejoin="round"/>
  <polyline points="129.641500408662,104.62400838270118 134.48208783958975,105.31534341950423 139.32310854301386,106.00327246734115 144.16187063819365,106.70565782085929 148.99581930383255,107.43965765390395 153.82317962759302,108.21692954435798 158.6435030841492,109.03977623585558 163.45800769638913,109.89930858735718" fill="none" stroke="url(#g-alm)" stroke-width="1.73" stroke-linecap="round" stroke-linejoin="round"/>
  <polyline points="129.05574337464876,107.46751477712331 132.60578241244838,108.43848922686786 136.15576389945628,109.40937997420664 139.70941529505612,110.36600112877493 143.27013245176474,111.29551363333918 146.8400033432659,112.18990672346231 150.41909353922964,113.04863573820569 154.00521818264784,113.87969186059644" fill="none" stroke="url(#g-alm)" stroke-width="2.01" stroke-linecap="round" stroke-linejoin="round"/>
  <polyline points="128.8299776976516,108.2965285483093 136.66050581637697,110.76067107799636 144.47944793850948,113.26130125781798 152.30750063093063,115.72963417745066 160.16695710617992,118.09308824614237 168.07447613984476,120.29602834339663 176.03503050984227,122.31796685566545 184.03929373828316,124.18435445880388" fill="none" stroke="url(#g-alm)" stroke-width="2.28" stroke-linecap="round" stroke-linejoin="round"/>
  <polyline points="128.5104901795797,109.33552085960338 134.86675104862974,111.25068242805824 141.22872503433734,113.14638974283037 147.5810182044101,115.07143486736891 153.90817252103992,117.07558059138873 160.19862125640398,119.19522217479698 166.44821364744507,121.44127936143195 172.66264170169552,123.79277252153035" fill="none" stroke="url(#g-alm)" stroke-width="1.28" stroke-linecap="round" stroke-linejoin="round"/>
  <polyline points="127.446629257915,112.11125684553687 134.70446998643214,115.16792617411333 141.97141570840702,118.20284079438372 149.22903115091216,121.2587223561469 156.45813432425734,124.38048798210394 163.64400247923396,127.6021579232746 170.78100764706835,130.93552787118816 177.87563370711663,134.36384821512638" fill="none" stroke="url(#g-alm)" stroke-width="1.41" stroke-linecap="round" stroke-linejoin="round"/>
  <polyline points="126.82518662347627,113.43165524481887 130.6741643729489,115.39448164091658 134.52271011837252,117.3581162179627 138.37474558215425,119.31478097861213 142.23394957225884,121.257195936415 146.10272664073258,123.18058125364023 149.98140502874355,125.08423090999554 153.86789504390745,126.972225958743" fill="none" stroke="url(#g-alm)" stroke-width="2.01" stroke-linecap="round" stroke-linejoin="round"/>
  <polyline points="125.96298672156391,115.03074583964137 128.37223068248392,116.65625594561948 130.7845976167033,118.27451739563936 133.22488848174163,119.84469920898823 135.7146526629616,121.33179588667235 138.2659132342917,122.71561596376571 140.87696834491618,123.99731112627136 143.53167360909313,125.20178163666563" fill="none" stroke="url(#g-alm)" stroke-width="2.35" stroke-linecap="round" stroke-linejoin="round"/>
  <polyline points="126.0670219818741,114.84959140840218 128.13041723825208,115.75246711264457 130.18415651762857,116.6697048199346 132.20345273436635,117.64774603113622 134.16841123222764,118.7245587821793 136.06843908668128,119.91939819619004 137.90547737074513,121.22630391915429 139.69544100351325,122.61328816496153" fill="none" stroke="url(#g-alm)" stroke-width="2.38" stroke-linecap="round" stroke-linejoin="round"/>
  <polyline points="125.09951049635458,116.43212015667444 129.2508176632326,118.98383227878927 133.40581286261295,121.52905175781372 137.54309622953733,124.10129597006497 141.64225768241744,126.73280784114013 145.68927962300077,129.44538035419828 149.68100175553792,132.2430578053502 153.62758203103442,135.1088469145189" fill="none" stroke="url(#g-alm)" stroke-width="1.9" stroke-linecap="round" stroke-linejoin="round"/>
  <polyline points="123.76537125492676,118.30866267960336 125.43590708697933,119.69719305780204 127.11008099204255,121.0807593927151 128.79884591121026,122.44541928784173 130.51109043364295,123.77991881423947 132.25126725772483,125.07853832564383 134.01789653644445,126.34295970681875 135.80338726735081,127.58265937584456" fill="none" stroke="url(#g-alm)" stroke-width="1.26" stroke-linecap="round" stroke-linejoin="round"/>
  <polyline points="123.51473698491208,118.62946978661519 127.30947580888726,122.01202363823771 131.09107415834254,125.40773731023334 134.91436692900697,128.75067031850207 138.83293324750625,131.97746256060225 142.88290727152327,135.04406562169555 147.07035517465033,137.93971652972806 151.36644223410582,140.69488781695455" fill="none" stroke="url(#g-alm)" stroke-width="1.8" stroke-linecap="round" stroke-linejoin="round"/>
  <polyline points="122.53588961587448,119.80236549559473 125.24257507699656,121.83243578234999 127.94529670375324,123.86456950912557 130.6019809258294,125.9492210757954 133.17557116209002,128.1315197368232 135.64317813505698,130.4383636054209 138.00324174877,132.8692034180478 140.27913896828665,135.39342112929114" fill="none" stroke="url(#g-alm)" stroke-width="2.23" stroke-linecap="round" stroke-linejoin="round"/>
  <polyline points="121.66956566593097,120.74680514801992 125.60639367370673,124.34652272697396 129.54921293809593,127.9394499673464 133.47317741050895,131.5520402772505 137.354099468807,135.21022329329867 141.17504452124706,138.93193699320142 144.93180494385638,142.7210963077881 148.6358587583004,146.5647858577753" fill="none" stroke="url(#g-alm)" stroke-width="1.98" stroke-linecap="round" stroke-linejoin="round"/>
  <polyline points="120.82820665635943,121.59133639865733 124.86120090101267,125.46974673545978 128.90628431110173,129.33498392637642 132.9185217796563,133.23180194813986 136.8538612283192,137.20459337638343 140.68097899417302,141.284305241715 144.39127882159607,145.47787668628578 148.0046353020859,149.76348884005964" fill="none" stroke="url(#g-alm)" stroke-width="1.37" stroke-linecap="round" stroke-linejoin="round"/>
  <polyline points="118.98459510216277,123.2289721857627 121.808863382894,126.3334662869206 124.6363060718213,129.4338314924144 127.42110980973989,132.56904773174597 130.12087220332918,135.77565355008346 132.70773173442973,139.07703783041728 135.177281039421,142.4753793012298 137.55309551176717,145.94882358237666" fill="none" stroke="url(#g-alm)" stroke-width="1.72" stroke-linecap="round" stroke-linejoin="round"/>
  <polyline points="118.56296679744112,123.5672710273612 121.78468077574786,128.00874583964375 124.99195403769943,132.46011342546092 128.2366337158617,136.88192276728626 131.5698876529987,141.23572837705981 135.0272821658208,145.49422387593467 138.61672744490377,149.64984868482537 142.3129595268353,153.71991427987444" fill="none" stroke="url(#g-alm)" stroke-width="2.08" stroke-linecap="round" stroke-linejoin="round"/>
  <polyline points="117.30501348232933,124.50584641216051 120.31715260137229,128.86393643591916 123.32609478268239,133.2241982679146 126.34477439263671,137.5775791936832 129.38582564985984,141.91526463927548 132.45800681057437,146.23110999516547 135.5632916182361,150.52364417696455 138.69545281173876,154.7971155539276" fill="none" stroke="url(#g-alm)" stroke-width="1.81" stroke-linecap="round" stroke-linejoin="round"/>
  <polyline points="116.41253672304154,125.11232044863263 118.48545138824936,127.7640578698913 120.55330474361939,130.4168229283798 122.5575416733347,133.11128516363044 124.44647834692924,135.88397740825403 126.18850234320706,138.75634835707274 127.78216697683074,141.72717644244452 129.26074851896544,144.7709763441699" fill="none" stroke="url(#g-alm)" stroke-width="2.43" stroke-linecap="round" stroke-linejoin="round"/>
  <polyline points="115.19954713179499,125.86452719437072 116.77324848315678,128.12015001649513 118.33771394276707,130.37996884741327 119.8501476996131,132.67048072602344 121.27431136624314,135.0144487571654 122.5897374785949,137.42426798743057 123.79833478166391,139.89762298431148 124.92671613681145,142.41690372723502" fill="none" stroke="url(#g-alm)" stroke-width="1.31" stroke-linecap="round" stroke-linejoin="round"/>
  <polyline points="112.49913710358395,127.27217577799415 113.80894801748647,130.14954344634216 115.11895193332573,133.02682096291147 116.43096086055762,135.90317967139595 117.74656332415222,138.77789357446136 119.0666976409859,141.65053319302993 120.39134198125446,144.52110690941376 121.71940736401186,147.39011105457416" fill="none" stroke="url(#g-alm)" stroke-width="1.34" stroke-linecap="round" stroke-linejoin="round"/>
  <polyline points="111.78366252739842,127.58886183662506 112.93809218937838,130.8600637263816 114.09444905481085,134.1291606559579 115.30519327899052,137.37508627839821 116.61733286349804,140.57931436531757 118.05939157495575,143.73011488520285 119.6318457951758,146.82607013752695 121.30383289635805,149.87825313238434" fill="none" stroke="url(#g-alm)" stroke-width="2.55" stroke-linecap="round" stroke-linejoin="round"/>
  <polyline points="110.30690205119056,128.17388454060185 111.39741500770391,131.2778736937462 112.48870745270965,134.38153285253065 113.59068030457131,137.48128732136408 114.71209057468441,140.5739875834032 115.8581825124055,143.6577304013475 117.02895192647105,146.7324746122708 118.21852971222954,149.80029402264373" fill="none" stroke="url(#g-alm)" stroke-width="1.88" stroke-linecap="round" stroke-linejoin="round"/>
  <polyline points="110.64756801363282,128.0469124039539 111.81595165746268,131.3717875663158 112.98498324308527,134.69622167564856 114.17562043490351,138.01246169902413 115.40668201184305,141.31359982256848 116.68970136979021,144.59532735515708 118.02509813673058,147.8573005374783 119.40075149848654,151.10379921050898" fill="none" stroke="url(#g-alm)" stroke-width="2.59" stroke-linecap="round" stroke-linejoin="round"/>
  <polyline points="107.14746890266552,129.13612342583394 107.59945165294539,130.1573772695479 108.02570587686812,131.18407967500366 108.3901703451919,132.2261411584707 108.66735621536411,133.29079546366273 108.84831768171338,134.38035828992642 108.94357796698193,135.49135743042126 108.98222908922436,136.61538636217892" fill="none" stroke="url(#g-alm)" stroke-width="2.11" stroke-linecap="round" stroke-linejoin="round"/>
  <polyline points="104.80455368430955,129.61277197248828 104.8836352558818,131.5734129940873 104.98305266808225,133.52947924358887 105.15297888187169,135.47430451943097 105.43313051782215,137.40293350727447 105.84251902295397,139.31257270571857 106.37313562833386,141.20324977553716 106.98935893512281,143.07877609018928" fill="none" stroke="url(#g-alm)" stroke-width="1.73" stroke-linecap="round" stroke-linejoin="round"/>
  <polyline points="104.12331559438613,129.71528678153877 104.81833964153007,132.92302249940502 105.5080619397979,136.13003767352677 106.13175469713642,139.3462992924504 106.63585208463863,142.58099599198846 106.98821583756583,145.8390817390217 107.18867634326509,149.1191926260933 107.27300416178265,152.41398565876005" fill="none" stroke="url(#g-alm)" stroke-width="1.6" stroke-linecap="round" stroke-linejoin="round"/>
  <polyline points="103.0292998117736,129.84666384456375 103.2159238528656,132.40057974499746 103.40658796756945,134.95396467047397 103.61786767219766,137.5052702254623 103.86365132114157,140.05323024110373 104.15148365997547,142.59711317079734 104.4800722145814,145.13693224500554 104.83865105923685,147.67358815555158" fill="none" stroke="url(#g-alm)" stroke-width="1.52" stroke-linecap="round" stroke-linejoin="round"/>
  <polyline points="101.38924481947582,129.96781605041582 101.69653382504599,131.73681288763976 101.98195166983905,133.50568385752254 102.19836540866795,135.27794751996913 102.30920459415238,137.05662314562176 102.29765248305245,138.84273208229087 102.17218430417736,140.63473760523215 101.96693358886003,142.42931350039657" fill="none" stroke="url(#g-alm)" stroke-width="1.98" stroke-linecap="round" stroke-linejoin="round"/>
  <polyline points="101.15338341777608,129.97782024583506 101.02841126608868,131.19007030805125 100.9254147878345,132.40082768312524 100.87768315997039,133.6096028964024 100.90919261734717,134.81621183937273 101.02879539771544,136.02041251207203 101.22729492364995,137.2218938274986 101.47822009558296,138.4207156321109" fill="none" stroke="url(#g-alm)" stroke-width="2.51" stroke-linecap="round" stroke-linejoin="round"/>
  <polyline points="98.37363425539675,129.95588313611836 98.38435420403758,130.41148316175386 98.3890242203607,130.86672802756917 98.38154655032858,131.3213214343811 98.35809939015286,131.7750855143654 98.3179784682658,132.22798369332338 98.26382960824469,132.6801312309608 98.20120770476824,133.13179213280716" fill="none" stroke="url(#g-alm)" stroke-width="2.39" stroke-linecap="round" stroke-linejoin="round"/>
  <polyline points="97.57830486501649,129.90209679392396 97.22579171491353,133.32960174633553 96.87421705298486,136.75705040476223 96.54238470243206,140.1861041205681 96.24707983740699,143.61828237983113 95.99853555590578,147.05446051680786 95.79705852293688,150.4945379720479 95.63174534511394,153.9374141790152" fill="none" stroke="url(#g-alm)" stroke-width="1.2" stroke-linecap="round" stroke-linejoin="round"/>
  <polyline points="96.39797460553052,129.78297186409705 96.27925167919435,132.35020879585397 96.15000085979753,134.91533016726794 95.9665270223515,137.47398412684294 95.69219446318837,140.022739014882 95.30711126324465,142.55942760378085 94.81471984551239,145.08364479389206 94.24344318393548,147.59749055355482" fill="none" stroke="url(#g-alm)" stroke-width="2.33" stroke-linecap="round" stroke-linejoin="round"/>
  <polyline points="96.50377082048094,129.79557654290784 96.14492800105555,130.57064542298957 95.82605643876703,131.34886319571942 95.59525028931326,132.13781947253852 95.48488720285356,132.9430477334018 95.50425311659232,133.76580251815795 95.63649677392753,134.602495092921 95.84073507294127,135.44610210977584" fill="none" stroke="url(#g-alm)" stroke-width="2.06" stroke-linecap="round" stroke-linejoin="round"/>
  <polyline points="92.8116051284996,129.12605327145076 91.57576555462126,133.09785190290648 90.33521692728934,137.0669639103296 89.15457691047763,141.0508678884338 88.09374286443102,145.06621684405766 87.1916824715353,149.12323846359095 86.45370818702554,153.22182842446117 85.84561155353379,157.35097741375637" fill="none" stroke="url(#g-alm)" stroke-width="2.58" stroke-linecap="round" stroke-linejoin="round"/>
  <polyline points="93.69041362366222,129.32898088511655 93.38205762927596,130.51474439606028 93.08020047357999,131.70184498108273 92.79473200085708,132.8924847768377 92.53278934263868,134.08826887520547 92.29703509101955,135.2897794953252 92.08478018024535,136.49637547569318 91.88819275243303,137.70628144498602" fill="none" stroke="url(#g-alm)" stroke-width="1.75" stroke-linecap="round" stroke-linejoin="round"/>
  <polyline points="91.01300649198866,128.6222631475389 90.38666539470226,131.47396378239412 89.75128050474939,134.3212151134283 89.04771759125587,137.14719221255018 88.22494990881434,139.93779859990275 87.2539303112978,142.68441533983062 86.1373068398497,145.38632226621638 84.91216011554653,148.05256876126532" fill="none" stroke="url(#g-alm)" stroke-width="1.29" stroke-linecap="round" stroke-linejoin="round"/>
  <polyline points="89.48791444658325,128.09797247698927 88.89394610987397,129.81600103373793 88.29592251822183,131.53246225093403 87.68479839676,133.244030643515 87.05351908895682,134.9481252518976 86.39881765625502,136.64353465618467 85.72229656866104,138.33080808717153 85.0304906324613,140.01231345253117" fill="none" stroke="url(#g-alm)" stroke-width="2.22" stroke-linecap="round" stroke-linejoin="round"/>
  <polyline points="88.30412896460619,127.62619410493302 87.40850313304745,129.61458741085056 86.51636658545118,131.604397156167 85.63776251583641,133.59994435769738 84.78081600764273,135.6047402695168 83.94964974989666,137.62054545717 83.14302819260887,139.64677673728 82.35410071952981,141.68043895175808" fill="none" stroke="url(#g-alm)" stroke-width="1.72" stroke-linecap="round" stroke-linejoin="round"/>
  <polyline points="85.19282859172313,126.09114169379922 84.13636300754472,128.01431100676004 83.0779173765022,129.9363323617787 82.01163551860844,131.85390981689835 80.9327674768775,133.76437618204136 79.83890416156069,135.66637034138526 78.7307750085809,137.56028230258602 77.61238493987341,139.44834706198426" fill="none" stroke="url(#g-alm)" stroke-width="1.54" stroke-linecap="round" stroke-linejoin="round"/>
  <polyline points="84.84511521650388,125.89072164307048 83.64522257571414,127.871298158026 82.44742821251128,129.85307034191433 81.2584917225248,131.84003150490707 80.08395204605468,133.83546216869834 78.92669692584252,135.8410611633402 77.78601309763907,137.85637897552866 76.65737693935154,139.87871664590423" fill="none" stroke="url(#g-alm)" stroke-width="2.1" stroke-linecap="round" stroke-linejoin="round"/>
  <polyline points="85.71851965895645,126.38255710253247 85.21791745518459,127.69094185375639 84.69866466017264,128.9883905645771 84.12834953581205,130.25837054984981 83.48292738734068,131.48883001426356 82.75284711598442,132.67474327076977 81.94625902782398,133.81966580065176 81.0883576204687,134.935978138538" fill="none" stroke="url(#g-alm)" stroke-width="2.35" stroke-linecap="round" stroke-linejoin="round"/>
  <polyline points="84.05341992453842,125.41075724760857 81.69563147855885,129.515588838412 79.3456987953823,133.62436951515986 76.95888327806932,137.70997767826003 74.49237357177108,141.74676231375423 71.91750815835724,145.71716434438122 69.22941212526376,149.6172276559604 66.45119381065741,153.45977419548848" fill="none" stroke="url(#g-alm)" stroke-width="2.08" stroke-linecap="round" stroke-linejoin="round"/>
  <polyline points="80.86793108001095,123.10765974392018 77.6737797948429,126.66985115190501 74.47297251935794,130.22540787662643 71.30625026384473,133.8091519954989 68.21238502990474,137.45457864449716 65.21779214836582,141.18405168649113 62.32803702384291,145.00115272275735 59.523349769692956,148.88758581244642" fill="none" stroke="url(#g-alm)" stroke-width="1.34" stroke-linecap="round" stroke-linejoin="round"/>
  <polyline points="81.80996347063798,123.85628996848578 79.11546693251536,127.67219917962927 76.42746370106332,131.49216595013988 73.70723223453194,135.28753785640018 70.91780305417961,139.0312322699152 68.03453853823436,142.70484958685302 65.05343624141888,146.30451970586208 61.994675866201355,149.84410182017325" fill="none" stroke="url(#g-alm)" stroke-width="1.36" stroke-linecap="round" stroke-linejoin="round"/>
  <polyline points="79.98773396473985,122.34970264084005 78.69114577605976,123.48137900424027 77.41110120247863,124.62652842600798 76.17951000493906,125.8153002145315 75.02076140774177,127.07108642699052 73.94602925575784,128.40416688279925 72.94971127697288,129.80817621652838 72.00885331711183,131.26051811606123" fill="none" stroke="url(#g-alm)" stroke-width="2.09" stroke-linecap="round" stroke-linejoin="round"/>
  <polyline points="77.98476362320153,120.37963118590937 74.6092238871578,123.29546164838487 71.23044995258238,126.2069613065954 67.87685954915193,129.14565499473824 64.57510714070632,132.1413688391504 61.343008270119974,135.2136993739768 58.18382162331645,138.36539597398743 55.083301186720966,141.57964694251075" fill="none" stroke="url(#g-alm)" stroke-width="2.19" stroke-linecap="round" stroke-linejoin="round"/>
  <polyline points="77.82441639826166,120.20503630094026 73.90053251194095,124.0078147471891 69.98616693705563,127.82000480065196 66.046930063452,131.60483273666932 62.04889435913818,135.32635924211368 57.96851655361797,138.95923818875806 53.800634835289664,142.49687472817445 49.56208770762591,145.955942676123" fill="none" stroke="url(#g-alm)" stroke-width="1.49" stroke-linecap="round" stroke-linejoin="round"/>
  <polyline points="77.44625431290575,119.78202607120609 74.02369159904626,123.17903187607475 70.61274447655144,126.58602246255978 67.15605259811842,129.94075652421566 63.59821057323846,133.1841085036568 59.90235352310106,136.27548442146997 56.062976486781594,139.20563510538483 52.11075701778622,142.00394321846807" fill="none" stroke="url(#g-alm)" stroke-width="1.99" stroke-linecap="round" stroke-linejoin="round"/>
  <polyline points="74.78201237888521,116.2497107771585 69.04061641099295,119.93426366167776 63.29829463188102,123.61737237955334 57.55728709018556,127.3025197765606 51.81988540802608,130.99327166666913 46.08778047948918,134.69225616230227 40.36150598843831,138.4002950379798 34.64013027043232,142.115929133416" fill="none" stroke="url(#g-alm)" stroke-width="2.43" stroke-linecap="round" stroke-linejoin="round"/>
  <polyline points="75.81694685908474,117.7533078828614 71.97199215479515,120.37578142349545 68.12336275747072,122.99218082390293 64.29741799446828,125.63945599586825 60.51905812825675,128.35284774751455 56.80517874960305,131.15583156683343 53.159297957580335,134.05222061484136 49.568629270753455,137.02277153732265" fill="none" stroke="url(#g-alm)" stroke-width="1.55" stroke-linecap="round" stroke-linejoin="round"/>
  <polyline points="73.30369938362988,113.68603424664705 70.4928224662793,114.88531333982496 67.68603414811163,116.09019444235254 64.90614232957037,117.34771324765724 62.17272444682377,118.69890552925875 59.497557164961954,120.16750848822065 56.88101784432844,121.75198083747591 54.31014916498713,123.42320279644817" fill="none" stroke="url(#g-alm)" stroke-width="1.86" stroke-linecap="round" stroke-linejoin="round"/>
  <polyline points="72.75714064669168,112.56290628222072 65.71884046013483,115.88879393431101 58.68594448670147,119.22607948893737 51.64777456893086,122.55187854750827 44.593094632161836,125.84223971924722 37.5134436723524,129.079001904294 30.40599434205113,132.25575884259524 23.275075463471694,135.381309427265" fill="none" stroke="url(#g-alm)" stroke-width="1.85" stroke-linecap="round" stroke-linejoin="round"/>
  <polyline points="72.8921498431673,112.85163257624124 70.33569113588003,114.26107586921522 67.7769574644546,115.66398860864602 65.19691421889628,117.0220954130495 62.57899037107678,118.30251490808969 59.91394235724751,119.48628996125846 57.20309799681362,120.57455203930354 54.45887887603793,121.59071089773367" fill="none" stroke="url(#g-alm)" stroke-width="1.33" stroke-linecap="round" stroke-linejoin="round"/>
  <polyline points="72.80722445542364,112.67094937967514 65.7571611829532,115.91973219072116 58.70472651629599,119.16336078145757 51.654713981326886,122.41217739425903 44.61213296772931,125.67701638867982 37.580784952281135,128.96607375967258 30.5620219936434,132.28219539952613 23.554017639869457,135.62134255758053" fill="none" stroke="url(#g-alm)" stroke-width="2" stroke-linecap="round" stroke-linejoin="round"/>
  <polyline points="72.0360347401343,110.86354670193046 64.57340432506705,114.06262979911422 57.13141598086757,117.30935803282287 49.672785277046586,120.51233429488214 42.15741412822571,123.57544450678937 34.55542116506484,126.4250306437838 26.85801851707828,129.03379759675263 19.08215687175509,131.43526891391198" fill="none" stroke="url(#g-alm)" stroke-width="2.37" stroke-linecap="round" stroke-linejoin="round"/>
  <polyline points="71.49859949397408,109.36323497489546 68.5792818367964,110.35745758874998 65.65967509242074,111.35071644074634 62.73720967854808,112.33527949038212 59.80963853004297,113.30440735314446 56.87565563502355,114.25415181415215 53.93533462235984,115.18465668132336 50.990257917567945,116.10060288370084" fill="none" stroke="url(#g-alm)" stroke-width="1.73" stroke-linecap="round" stroke-linejoin="round"/>
  <polyline points="71.20883996937307,108.43024934926783 66.32312943724001,110.09501115079166 61.44279060720273,111.77371283691875 56.548214008670286,113.4035756959069 51.61998399444946,114.92378717940333 46.645184952073805,116.2922649417295 41.622168881631204,117.49939487401906 36.56193276856289,118.57510167800581" fill="none" stroke="url(#g-alm)" stroke-width="2.46" stroke-linecap="round" stroke-linejoin="round"/>
  <polyline points="70.50558908932882,105.48449861267926 64.50323809442415,106.2869034049071 58.49733296538956,107.05726138264622 52.50333963161329,107.890526019537 46.535919067988125,108.88188176669064 40.60652615997149,110.09947791940442 34.720719728151906,111.56174556154373 28.874776019331478,113.22576651657565" fill="none" stroke="url(#g-alm)" stroke-width="1.69" stroke-linecap="round" stroke-linejoin="round"/>
  <polyline points="70.279864335643,104.08821918348497 63.64941001874747,105.15545538245834 57.02229650918336,106.24263119824346 50.39118465243904,107.30023479897304 43.74836578867928,108.27776544736167 37.088409982601455,109.13808376610054 30.410249700484385,109.86962943189094 23.71781445879168,110.49316523348632" fill="none" stroke="url(#g-alm)" stroke-width="1.91" stroke-linecap="round" stroke-linejoin="round"/>
  <polyline points="70.02801338863695,101.29615530252897 64.82107895169263,101.53687166366754 59.61419648801726,101.77865298925825 54.407163312790374,102.01694229133386 49.19978035731983,102.24730722743371 43.99191231746687,102.4666824457168 38.78353484873672,102.67438135784995 33.57475305361504,102.87259690749735" fill="none" stroke="url(#g-alm)" stroke-width="1.77" stroke-linecap="round" stroke-linejoin="round"/>
  <polyline points="70.12975659528114,102.78721347278054 65.41445311972885,103.1469963353018 60.69895330407937,103.50300577695897 55.985206487193096,103.8777568005855 51.27502399961194,104.29272960212556 46.56968726667263,104.76238446313437 41.86958706397031,105.28938279081018 37.17392829554846,105.86234504767577" fill="none" stroke="url(#g-alm)" stroke-width="1.23" stroke-linecap="round" stroke-linejoin="round"/>
  <polyline points="70.03591238469073,101.46746495088301 61.87132254905849,102.0931081556273 53.71010117505596,102.76107928847549 45.54726527961381,103.39162496841763 37.37701244155766,103.9005146259551 29.1954147192143,104.22332039841329 21.00242784429102,104.33664301014952 12.801907810358813,104.27045020408985" fill="none" stroke="url(#g-alm)" stroke-width="1.5" stroke-linecap="round" stroke-linejoin="round"/>
  <polyline points="70.02419701858162,98.79532758843389 61.558078944461805,98.38759148584283 53.09261538550515,97.96645763467387 44.62673687923161,97.5561624114824 36.15925770790184,97.18245960415905 27.68931101053093,96.86516631156263 19.2166999837209,96.61162405073938 10.741999222821292,96.41288504883532" fill="none" stroke="url(#g-alm)" stroke-width="2.05" stroke-linecap="round" stroke-linejoin="round"/>
  <polyline points="70.20761802606519,96.47665268258088 64.62558947675626,95.65598951052554 59.045814547931705,94.82161483690733 53.462039342069644,94.0214455241069 47.86787551134158,93.30278461296575 42.259064852504565,92.69904165910384 36.63516480923656,92.21873934686117 30.99989277763393,91.8398151951646" fill="none" stroke="url(#g-alm)" stroke-width="2.49" stroke-linecap="round" stroke-linejoin="round"/>
  <polyline points="70.23212057529051,96.27530477005742 62.40064221687975,95.57033428301352 54.56507721292559,94.9132330005334 46.73563865119695,94.20956828682235 38.92227957837934,93.36016878186228 31.133292539033533,92.28987586231746 23.37358602196207,90.97246817426996 15.642045307923198,89.44474119347325" fill="none" stroke="url(#g-alm)" stroke-width="1.38" stroke-linecap="round" stroke-linejoin="round"/>
  <polyline points="70.57482277972582,94.15543452808868 63.19312203057944,92.9545545667528 55.80492142730995,91.79518545409726 48.42605719627326,90.59008090424824 41.0723377190639,89.24835867841924 33.756307536531736,87.70186117885005 26.483992175826998,85.92781973994904 19.251590352105183,83.9613755456104" fill="none" stroke="url(#g-alm)" stroke-width="2.49" stroke-linecap="round" stroke-linejoin="round"/>
  <polyline points="71.2620249026189,91.39019237716056 67.87121621175655,90.13258032384826 64.48132389967502,88.8763450231764 61.07402089431537,87.67806223752017 57.63244254626022,86.58863776615881 54.146615914602506,85.63974561875438 50.61716080714829,84.83350000649298 47.055806860301736,84.13808502044397" fill="none" stroke="url(#g-alm)" stroke-width="1.74" stroke-linecap="round" stroke-linejoin="round"/>
  <polyline points="71.47981358298911,90.69414341723731 65.54004625474005,88.56797848773994 59.607411162427624,86.42252538567502 53.663632055172634,84.31148281556456 47.6899981013854,82.28893631280225 41.673253861657145,80.39417779796054 35.610337493006114,78.63885679044557 29.510272272634765,76.9998944888523" fill="none" stroke="url(#g-alm)" stroke-width="2.55" stroke-linecap="round" stroke-linejoin="round"/>
  <polyline points="71.63393929390804,90.23441757915555 67.75865397848341,89.01253611861688 63.88304293367149,87.7924311399619 60.01609380475352,86.54715816234692 56.16604055024287,85.25178303700135 52.338283924082646,83.89029064891008 48.533702085211075,82.4609031809694 44.74772110912224,80.97830047538213" fill="none" stroke="url(#g-alm)" stroke-width="2.2" stroke-linecap="round" stroke-linejoin="round"/>
  <polyline points="72.49958125601322,88.01138169323168 70.05927454838269,86.81253160948128 67.61689623431617,85.61932195692896 65.16048961394866,84.45820608383347 62.67982583379648,83.35158992249214 60.169326154442246,82.31200749143383 57.629992350654085,81.33802277153566 55.06971659469586,80.41295213808702" fill="none" stroke="url(#g-alm)" stroke-width="1.37" stroke-linecap="round" stroke-linejoin="round"/>
  <polyline points="72.68555053852178,87.59351578341582 66.34151218745382,84.76139889855368 59.99490156430874,81.93506819430098 53.65182253493276,79.10097764058384 47.31852587497331,76.24520820703775 40.99965645501146,73.35746631479036 34.69674341353753,70.43449238454602 28.407327214414607,67.48192321466723" fill="none" stroke="url(#g-alm)" stroke-width="2.53" stroke-linecap="round" stroke-linejoin="round"/>
  <polyline points="73.8506451243205,85.29587678282802 71.27842224550767,84.11399601043532 68.71215420271912,82.92404684059838 66.17747552757126,81.67769674058329 63.69602774864612,80.33344939544692 61.28045462644632,78.86805159306978 58.93053386186533,77.28433624028008 56.631193650385136,75.61315468858822" fill="none" stroke="url(#g-alm)" stroke-width="1.44" stroke-linecap="round" stroke-linejoin="round"/>
  <polyline points="73.30269117114217,86.31593257483033 66.50531429355382,83.01355734670392 59.696396224062646,79.73514905451928 52.90068188701667,76.43119428055539 46.14372645775297,73.04996975018659 39.44500516243207,69.55264965361951 32.81179723703136,65.92627967273175 26.235208891772288,62.19085670397405" fill="none" stroke="url(#g-alm)" stroke-width="2.11" stroke-linecap="round" stroke-linejoin="round"/>
  <polyline points="74.50349441251318,84.19088228814607 71.32220498291238,82.06918975565767 68.14161223575641,79.94710095300611 64.94389210154137,77.85261768951001 61.71268415033502,75.81123882259911 58.4377882463277,73.83913954988043 55.118645244090814,71.937903344462 51.765517325714946,70.09219119256903" fill="none" stroke="url(#g-alm)" stroke-width="2.26" stroke-linecap="round" stroke-linejoin="round"/>
  <polyline points="75.96494880216655,82.0468299758086 70.6558121010299,78.03963734704016 65.34926289388929,74.02902692952328 60.03882985909276,70.02362130370975 54.71791119815613,66.03219982556048 49.381674974697596,62.06120660351165 44.02866510123584,58.11263147649529 38.66165612839722,54.18284290451322" fill="none" stroke="url(#g-alm)" stroke-width="2.33" stroke-linecap="round" stroke-linejoin="round"/>
  <polyline points="76.71837864504971,81.08000774089157 73.75093547221405,78.8288513028511 70.7837114002942,76.57800978932173 67.83677821685065,74.30218253981103 64.9282725930381,71.97834050972479 62.06965593966166,69.59216280202511 59.26202981044114,67.14284337294373 56.49442377054438,64.64485213722739" fill="none" stroke="url(#g-alm)" stroke-width="2.46" stroke-linecap="round" stroke-linejoin="round"/>
  <polyline points="76.61531630609781,81.20753958269049 73.03215694249153,78.37349050986417 69.44813187583506,75.54056728150164 65.86941823995215,72.70103559879968 62.301859693700095,69.84756376412572 58.749362568766145,66.97527016207582 55.212615742026394,64.08334220026742 51.688479305741915,61.175769908591164" fill="none" stroke="url(#g-alm)" stroke-width="2.14" stroke-linecap="round" stroke-linejoin="round"/>
  <polyline points="78.60398356803651,78.97119877779171 76.9950329224261,77.25603230128846 75.38173683859378,75.54558501554973 73.74886989515504,73.8550135321226 72.08387097984954,72.19674686185613 70.3802120588977,70.57734815351787 68.63958940145818,68.99538420261949 66.87229159722003,67.44085530292284" fill="none" stroke="url(#g-alm)" stroke-width="1.59" stroke-linecap="round" stroke-linejoin="round"/>
  <polyline points="79.04828705342678,78.52849039763632 77.92893312970796,77.07541475298254 76.7957842979818,75.63723627070529 75.61572960864922,74.24458888922268 74.36276868778987,72.92117329775526 73.02505413103088,71.67823979678614 71.60894416723791,70.5110231636766 70.13879424110822,69.39795959284231" fill="none" stroke="url(#g-alm)" stroke-width="1.76" stroke-linecap="round" stroke-linejoin="round"/>
  <polyline points="79.5729830437763,78.02872379059082 76.72856914912286,75.0140744248243 73.88370882888333,71.99987063948677 71.04440786466614,68.98049809835547 68.21623727647639,65.95073989039004 65.4028114969966,62.907223416718566 62.60460087360031,59.84953974624231 59.81840182011766,56.78071869046425" fill="none" stroke="url(#g-alm)" stroke-width="1.48" stroke-linecap="round" stroke-linejoin="round"/>
  <polyline points="80.56316123956844,77.14810075724589 79.57202602120321,76.07454810135226 78.58612224414657,74.99664879875809 77.61449464476064,73.90658632532582 76.66387959724693,72.7985125388951 75.7370727559395,71.67003109058108 74.83201466913405,70.52299836271025 73.94183894748367,69.36340944311351" fill="none" stroke="url(#g-alm)" stroke-width="2.48" stroke-linecap="round" stroke-linejoin="round"/>
  <polyline points="82.71648729799769,75.47898475430259 79.58804703441876,71.20667133097196 76.45408381338251,66.93852617122943 73.33760656407287,62.65807129344273 70.26102121796723,58.34916965901146 67.23993854121252,54.00068929302464 64.27807742610023,49.610257328428055 61.36461696032261,45.18597967474903" fill="none" stroke="url(#g-alm)" stroke-width="1.69" stroke-linecap="round" stroke-linejoin="round"/>
  <polyline points="84.50567383454822,74.31097789563417 83.98538422929444,73.58408090926335 83.47391809244243,72.85198657136613 82.98231936654734,72.10787753159433 82.51812871424337,71.34706512703548 82.08365185563663,70.56814417742763 81.67520440447322,69.77346664219118 81.2835362718284,68.96879249252967" fill="none" stroke="url(#g-alm)" stroke-width="1.97" stroke-linecap="round" stroke-linejoin="round"/>
  <polyline points="86.35218803481739,73.28413900764157 84.60124478090987,69.69183363656389 82.851279114762,66.09918005003489 81.08446919494693,62.515129367052445 79.28437854585195,58.94789322632101 77.44050641569514,55.40277696033551 75.55177605505243,51.88047163088837 73.62797071099752,48.376232734683015" fill="none" stroke="url(#g-alm)" stroke-width="2.54" stroke-linecap="round" stroke-linejoin="round"/>
  <polyline points="87.11158437939496,72.90961899879325 86.28190009215773,71.68789412546776 85.47588169514441,70.4561481685859 84.7337018852104,69.19378455273107 84.08521010544318,67.88517801740227 83.54287524126241,66.52417411935461 83.09775136779734,65.1162875319911 82.71949673770979,63.67781494262043" fill="none" stroke="url(#g-alm)" stroke-width="1.38" stroke-linecap="round" stroke-linejoin="round"/>
  <polyline points="87.09381111838972,72.91808188934544 84.93707352210991,68.87326963299165 82.77320790417558,64.83300361139104 80.65398381505665,60.771485265903735 78.62831884909082,56.663981829326495 76.72903903312155,52.49435903507316 74.96222279734496,48.26077514749726 73.30188941803237,43.97757144866493" fill="none" stroke="url(#g-alm)" stroke-width="1.38" stroke-linecap="round" stroke-linejoin="round"/>
  <polyline points="87.91538278060415,72.54163102694042 86.25778924892693,68.40879759206885 84.60509922794319,64.27438200570828 82.91972405970442,60.15435847357182 81.16618789958994,56.063629876224454 79.32109579883483,52.01225113627809 77.38093742144272,48.002297654977596 75.3654786965792,44.02604872429369" fill="none" stroke="url(#g-alm)" stroke-width="1.23" stroke-linecap="round" stroke-linejoin="round"/>
  <polyline points="90.28676827201612,71.61597052216709 89.94244928092623,71.05922471881658 89.62037691505745,70.49534607670219 89.34484496354058,69.91540584155983 89.13165221927969,69.3134608518655 88.98461700673278,68.68816329945486 88.89432866959875,68.04323962192028 88.83946933174992,67.38667002422883" fill="none" stroke="url(#g-alm)" stroke-width="2.32" stroke-linecap="round" stroke-linejoin="round"/>
  <polyline points="92.02151801026088,71.08039030105337 91.64129325115367,70.61142906274662 91.29996174283178,70.13303398080876 91.0379670997037,69.63237414357846 90.88111536342893,69.10088593157187 90.83502544650557,68.53692185428764 90.88329849764561,67.94637772730982 90.98988705169505,67.34103678575524" fill="none" stroke="url(#g-alm)" stroke-width="1.24" stroke-linecap="round" stroke-linejoin="round"/>
  <polyline points="93.0977105585983,70.80482230800581 92.21236814482477,68.25293624831718 91.340761472336,65.69959537499088 90.5448960315903,63.12817177564845 89.87714271154732,60.52415115407441 89.3667073436437,57.88010233879638 89.01010526386528,55.1985898536672 88.76815309645826,52.49173930735897" fill="none" stroke="url(#g-alm)" stroke-width="2.41" stroke-linecap="round" stroke-linejoin="round"/>
  <polyline points="96.41608225152977,70.21484373765684 96.15452275104438,68.73231222081758 95.90217056217959,67.24882564814538 95.67559324447242,65.76220793030191 95.48721929021535,64.27078757097598 95.34226856998349,62.77390836703014 95.23703243151057,61.27217164674524 95.1589768602395,59.767315879687196" fill="none" stroke="url(#g-alm)" stroke-width="1.36" stroke-linecap="round" stroke-linejoin="round"/>
  <polyline points="95.15763683129761,70.39338724300947 95.01513859782854,69.80200371251242 94.87988499120186,69.20947956980925 94.7597535944346,68.61446946647258 94.6598458337547,68.01608957540006 94.58134091057312,67.41414341073545 94.52110708402363,66.80918994776383 94.47217751061125,66.2024317195993" fill="none" stroke="url(#g-alm)" stroke-width="2.26" stroke-linecap="round" stroke-linejoin="round"/>
  <polyline points="98.80655305684573,70.02374799288818 98.92128204729083,67.89238653402023 99.02033316924538,65.76255483042237 99.0599948740465,63.63495961539792 99.00506494528194,61.5099402695516 98.83793161942029,59.38797638708367 98.56439330412056,57.26973416479628 98.21459922734152,55.15542286827506" fill="none" stroke="url(#g-alm)" stroke-width="1.86" stroke-linecap="round" stroke-linejoin="round"/>
  <polyline points="98.59515925656314,70.03291101081756 98.53820022478588,66.94009214399335 98.47864174327535,63.84757646976884 98.395039173026,60.75617530341839 98.26868220246209,57.66654799372845 98.08860985009026,54.57914930581994 97.85523103809227,51.49413383737394 97.58154463442801,48.41118646718786" fill="none" stroke="url(#g-alm)" stroke-width="2.13" stroke-linecap="round" stroke-linejoin="round"/>
  <polyline points="100.34233216578946,70.00195325211547 100.36049137083452,66.55942299424595 100.37891606204454,63.11690631677464 100.40294425284657,59.67445309120504 100.43734116780497,56.23210493044968 100.48500997907463,52.789891251941064 100.54603342278106,49.347823000714804 100.61731207617372,45.90588215282639" fill="none" stroke="url(#g-alm)" stroke-width="1.77" stroke-linecap="round" stroke-linejoin="round"/>
  <polyline points="101.8907497962176,70.05964153173674 102.0465135213959,65.76514875935584 102.19907880009997,61.470774630352295 102.37986021547702,57.178183601925795 102.61824443099044,52.88883709219036 102.9334680829445,48.60381861836899 103.3282607401106,44.323597114548136 103.78602221955354,40.047666460678286" fill="none" stroke="url(#g-alm)" stroke-width="2.09" stroke-linecap="round" stroke-linejoin="round"/>
  <polyline points="102.05864849126186,70.0707172423156 102.06082167133813,66.90914557761033 102.068625561828,63.74904625178847 102.13476307989893,60.592888108766054 102.3054236389494,57.44254331910388 102.60785321074192,54.29952724687873 103.041341214277,51.16482868451868 103.57413955659354,48.03802890160045" fill="none" stroke="url(#g-alm)" stroke-width="2.08" stroke-linecap="round" stroke-linejoin="round"/>
  <polyline points="104.06174539877263,70.27623468812288 104.72778618603077,66.4004740972004 105.39519573726717,62.52534156818731 106.02861860425777,58.64555727304998 106.5956134859232,54.75614928433652 107.07549184918696,50.85412036975254 107.4661251451298,46.93959173776839 107.7868575764385,43.01594403504207" fill="none" stroke="url(#g-alm)" stroke-width="1.48" stroke-linecap="round" stroke-linejoin="round"/>
  <polyline points="108.08507132619377,71.11000827881116 108.63967562857235,68.83050117191647 109.19945195696769,66.55259473294414 109.78182773500504,64.28099391217832 110.40114076397363,62.01953046676985 111.06488103591931,59.770260014256 111.77120867969994,57.53281825377258 112.50844621745668,55.30417814664079" fill="none" stroke="url(#g-alm)" stroke-width="1.5" stroke-linecap="round" stroke-linejoin="round"/>
  <polyline points="106.17530610789835,70.64245251262031 106.85039735316573,66.37072947581149 107.5191054366179,62.09884241058571 108.2402129722837,57.837983562580376 109.06882482162418,53.598293820380526 110.04099770707552,49.38687325789172 111.16175210676165,45.20586737224004 112.39987569367861,41.05070531658786" fill="none" stroke="url(#g-alm)" stroke-width="1.92" stroke-linecap="round" stroke-linejoin="round"/>
  <polyline points="110.48278401156857,71.89108256501503 111.87324523698567,67.5632492746976 113.2557151997884,63.23357019040534 114.68525400965942,58.921464197734444 116.21405787969496,54.644995811924495 117.87673116134128,50.41658850071403 119.67872144744639,46.23931625743686 121.59126961031376,42.104386189485474" fill="none" stroke="url(#g-alm)" stroke-width="2.47" stroke-linecap="round" stroke-linejoin="round"/>
  <polyline points="110.29901583097313,71.82323168080902 111.27497892278348,68.90709325023565 112.25331103708076,65.99199856978606 113.25339684353908,63.08484253754231 114.29214130268133,60.19159066217993 115.3794071089198,57.31579020778757 116.51474197439258,54.45744637547922 117.68632093398638,51.61252535634719" fill="none" stroke="url(#g-alm)" stroke-width="1.69" stroke-linecap="round" stroke-linejoin="round"/>
  <polyline points="110.63338536508297,71.94770747910896 110.77860743269575,71.20651408140571 110.94203302325391,70.47259222620397 111.14528938070791,69.75366822920583 111.40281218003747,69.05479718503639 111.7184520308007,68.37740200054489 112.08419233547556,67.71883343727282 112.48134543177119,67.07254170848904" fill="none" stroke="url(#g-alm)" stroke-width="1.29" stroke-linecap="round" stroke-linejoin="round"/>
  <polyline points="112.63785543815352,72.791828250977 114.08189617404298,69.6354415060944 115.52613615362861,66.47915775024917 116.97517772200331,63.325103802076534 118.43313766804599,60.175179214686985 119.90252983881571,57.03054794209176 121.3834340057189,53.89125692716956 122.87318281613582,50.75608440421023" fill="none" stroke="url(#g-alm)" stroke-width="1.55" stroke-linecap="round" stroke-linejoin="round"/>
  <polyline points="114.6491654014657,73.81981755142832 116.58932226802683,70.66296615531078 118.5291970700739,67.5065836228657 120.4347964368149,64.33100301391099 122.27537906047638,61.118260657556874 124.0316375335882,57.85732098103615 125.701979088359,54.54788217334651 127.30526279097049,51.20153660069403" fill="none" stroke="url(#g-alm)" stroke-width="2.5" stroke-linecap="round" stroke-linejoin="round"/>
  <polyline points="114.87698842604753,73.94860434887897 116.09940903174004,71.36866724478907 117.32920865902476,68.79421570463556 118.611982388038,66.24990532212988 119.98694553713833,63.75661172807709 121.47615941291238,61.326543449334864 123.07709654449505,58.95948547633404 124.76076404435784,56.6409247442701" fill="none" stroke="url(#g-alm)" stroke-width="2.18" stroke-linecap="round" stroke-linejoin="round"/>
  <polyline points="116.48613485528479,74.93593493598127 117.46973905398377,73.58113579648077 118.44662721179253,72.22207908820154 119.40352605046355,70.84984547943051 120.33028086432478,69.45757038693046 121.222355776451,68.04223809849412 122.08231729185938,66.60569799984378 122.91990437597698,65.15459932948296" fill="none" stroke="url(#g-alm)" stroke-width="1.56" stroke-linecap="round" stroke-linejoin="round"/>
  <polyline points="117.23310678728971,75.44353383611825 119.4598545752696,71.95692196490491 121.68318622874277,68.46886518047282 123.94325274236469,65.00658297752788 126.2774354305554,61.595140551830745 128.70975208183972,58.25101283649411 131.24276536531292,54.97688311170236 133.85440690685022,51.75886693167186" fill="none" stroke="url(#g-alm)" stroke-width="1.53" stroke-linecap="round" stroke-linejoin="round"/>
  <polyline points="118.60180477175311,76.46337196551758 119.14095592126273,75.42442760156794 119.70227461903391,74.40437148799694 120.31998430229538,73.42857073192242 121.01868757451135,72.51491133628187 121.80703685020217,71.67003176241863 122.67478960572734,70.88724639108801 123.59415659648045,70.14661241677177" fill="none" stroke="url(#g-alm)" stroke-width="1.28" stroke-linecap="round" stroke-linejoin="round"/>
  <polyline points="119.95986836150695,77.60349011583916 122.41701155625228,74.69265160371054 124.87361483947961,71.78166616320725 127.34981941484065,68.88814137334398 129.86404102354436,66.02808200477543 132.4278255821588,63.21165163230496 135.04198018694348,60.439882949540184 137.69511270546542,57.70317975039121" fill="none" stroke="url(#g-alm)" stroke-width="2.56" stroke-linecap="round" stroke-linejoin="round"/>
  <polyline points="122.01357711401855,79.61857653044913 125.71843388098347,76.0111976207198 129.41708560233738,72.39772687853518 133.1356939936929,68.8058409100379 136.89976150809485,65.26232312851921 140.726765339911,61.78576914578142 144.6202592415023,58.38056912757402 148.56721368578013,55.03370743704853" fill="none" stroke="url(#g-alm)" stroke-width="2.14" stroke-linecap="round" stroke-linejoin="round"/>
  <polyline points="122.26304522485924,79.8913745542896 126.78511497371571,75.71372345064727 131.3020558430268,71.5305715446697 135.82850695481383,67.35796543185694 140.37920295598724,63.211993723720894 144.9647262163948,59.104281761853 149.5879718886196,55.03819192150811 154.2423498054847,51.00674303460698" fill="none" stroke="url(#g-alm)" stroke-width="2.27" stroke-linecap="round" stroke-linejoin="round"/>
  <polyline points="122.63707813007225,80.31338795696414 124.91432865597967,78.65897251441245 127.18340972588126,76.99730628531869 129.4072538355143,75.28343086779569 131.55447933040915,73.47870446648491 133.60698086149276,71.56165855470093 135.56560521936348,69.53533972323899 137.4526594602508,67.42883633049769" fill="none" stroke="url(#g-alm)" stroke-width="1.6" stroke-linecap="round" stroke-linejoin="round"/>
  <polyline points="123.32621108117058,81.13500923412167 128.3426137552466,77.37593398402014 133.37446628666694,73.63808923583382 138.37662489736783,69.86373735951335 143.30397750830824,65.99440302376324 148.1234655044836,61.98811113877077 152.824495318046,57.83363949222707 157.4253860021635,53.55742203960847" fill="none" stroke="url(#g-alm)" stroke-width="1.56" stroke-linecap="round" stroke-linejoin="round"/>
  <polyline points="124.06449170965847,82.08631141401139 126.10469246327881,80.55981629803344 128.1451044249953,79.03360640755908 130.18658440051652,77.50883107915703 132.22984962541688,75.98645204105253 134.27528893847747,74.46699122066323 136.3228342375554,72.95035859367226 138.37192805869148,71.43580766297791" fill="none" stroke="url(#g-alm)" stroke-width="1.26" stroke-linecap="round" stroke-linejoin="round"/>
  <polyline points="126.17455306289884,85.34077860329913 131.65655723502115,82.39470617831296 137.1442075713057,79.45931343621919 142.6210354693336,76.50465455051388 148.0705581389124,73.50054129407542 153.48076634633935,70.425222920637 158.84796697714827,67.27263354160694 164.1790436374518,64.05612705404731" fill="none" stroke="url(#g-alm)" stroke-width="1.94" stroke-linecap="round" stroke-linejoin="round"/>
  <polyline points="126.063066309698,85.14346694089483 132.56298476306074,81.7856752247007 139.0840630721381,78.46964409705163 145.57759230367657,75.10592634169538 151.99388604980072,71.6014040302689 158.29498089405382,67.88686775763375 164.46612185123178,63.940440689135876 170.52396007204982,59.799759098968345" fill="none" stroke="url(#g-alm)" stroke-width="2.11" stroke-linecap="round" stroke-linejoin="round"/>
  <polyline points="126.59584913376858,86.11976913542787 130.21447270791012,84.1045461022991 133.8317639492849,82.08742526941329 137.46199243521423,80.09509025169999 141.11848117036288,78.15226571040853 144.80975127954264,76.27501718039218 148.53661013486885,74.4655001525971 152.29109440450668,72.7095585914522" fill="none" stroke="url(#g-alm)" stroke-width="1.91" stroke-linecap="round" stroke-linejoin="round"/>
  <polyline points="128.18311433270384,89.71836265423917 135.8067363326109,86.6235780043474 143.40914503324328,83.47708908460594 151.02790295672386,80.37650907335609 158.7035869801592,77.42471785596251 166.46643408564785,74.7007463883465 174.32521839568778,72.23412162045355 182.26264102429522,69.98931231901346" fill="none" stroke="url(#g-alm)" stroke-width="1.59" stroke-linecap="round" stroke-linejoin="round"/>
  <polyline points="128.16870035017652,89.6789380109426 135.90580078983908,86.9128871020115 143.64701187177948,84.1583641561893 151.38452519330366,81.39380151144984 159.11012708091434,78.59638182870195 166.8174942227184,75.74866259844433 174.50422579078594,72.84435403604286 182.17310685785043,69.89162726110659" fill="none" stroke="url(#g-alm)" stroke-width="1.86" stroke-linecap="round" stroke-linejoin="round"/>
  <polyline points="128.35874936899873,90.2132061314078 134.6850941716629,88.07508133656418 141.01320555661653,85.94221533771905 147.3385997920993,83.80149203894277 153.65672117082084,81.6395324562424 159.96420911824148,79.44652392350663 166.25998615812085,77.21946661971272 172.54588760438418,74.96392951748726" fill="none" stroke="url(#g-alm)" stroke-width="1.77" stroke-linecap="round" stroke-linejoin="round"/>
  <polyline points="129.43899604768114,94.22544272652749 135.41964165397076,93.33919166123663 141.4039847865637,92.48202133694157 147.3768996956016,91.5674970784948 153.32393079491828,90.50899900366348 159.2339316464539,89.24452715015933 165.10183807651106,87.75733334161963 170.93176447586936,86.08649779323456" fill="none" stroke="url(#g-alm)" stroke-width="1.4" stroke-linecap="round" stroke-linejoin="round"/>
  <polyline points="129.24626702476485,93.31749559550074 135.97652633856154,91.97292328500258 142.71167897917505,90.65376738746095 149.4387014377444,89.29951720622162 156.14457772270333,87.84810137777863 162.8193527030519,86.25377655563197 169.45898077483076,84.50232348787151 176.06764217653173,82.61923980061746" fill="none" stroke="url(#g-alm)" stroke-width="1.65" stroke-linecap="round" stroke-linejoin="round"/>
  <polyline points="129.55700544160985,94.86351975330908 132.87144362447555,94.19314999307376 136.1859288976973,93.52424318393733 139.5046713963447,92.87977327771488 142.831469885873,92.28015913924646 146.16854677374909,91.73777513621215 149.51574992773774,91.25287784450235 152.87041062353748,90.81206584548211" fill="none" stroke="url(#g-alm)" stroke-width="2.37" stroke-linecap="round" stroke-linejoin="round"/>
  <polyline points="129.9632504571195,98.51553981396307 135.0712927287948,98.22492654177339 140.1791809742346,97.93190036299622 145.2874892504903,97.64738472320829 150.39678496385272,97.38196468452128 155.5074448192754,97.14292517422483 160.61951590104928,96.93184695076404 165.7326757613576,96.74342607691868" fill="none" stroke="url(#g-alm)" stroke-width="1.81" stroke-linecap="round" stroke-linejoin="round"/>
  <polyline points="129.94511850622803,98.18619801302341 135.8644249807996,97.96949179889359 141.78408239211953,97.76680307968685 147.7018993659476,97.53441728682459 153.61586367088373,97.22874039868383 159.5243395802806,96.81865523366316 165.42637821364445,96.2958057294208 171.32229696886043,95.67994616782205" fill="none" stroke="url(#g-alm)" stroke-width="1.35" stroke-linecap="round" stroke-linejoin="round"/>
</svg>